<?xml version="1.0" encoding="UTF-8"?>
<svg width="100" height="40" viewBox="0 0 100 40" fill="none" xmlns="http://www.w3.org/2000/svg">
  <path d="M35.5 20.1c-3.5 2.6-8.6 4-13 4-6.2 0-11.7-2.3-15.9-6.1-.3-.3 0-.7.4-.5 4.7 2.7 10.5 4.4 16.5 4.4 4 0 8.5-.8 12.6-2.6.6-.3 1.1.4.5.8z" fill="currentColor"/>
  <path d="M37 18.3c-.4-.6-3-.3-4.1-.1-.3 0-.4-.3-.1-.5 2-1.4 5.3-1 5.7-.5.4.5-.1 3.7-1.9 5.3-.3.2-.6.1-.4-.2.4-1 1.3-3.2.8-4z" fill="currentColor"/>
  <path d="M33.2 13.8v-1.4c0-.2.2-.3.3-.3h5.7c.2 0 .3.1.3.3v1.2c0 .2-.2.4-.4.8l-3 4.3c1.1 0 2.3.1 3.3.6.2.1.3.3.3.5v1.5c0 .2-.2.4-.4.3-1.8-.9-4.1-1-6.1 0-.2.1-.4-.1-.4-.3v-1.4c0-.2 0-.6.2-.9l3.4-4.9h-3c-.2 0-.3-.1-.3-.3z" fill="currentColor"/>
  <path d="M60.8 24h-1.7c-.2 0-.3-.1-.3-.3v-9.4c0-.2.1-.3.3-.3h1.6c.2 0 .3.1.3.3v1.2h.1c.4-1.1 1.2-1.7 2.3-1.7.8 0 1.5.3 2 .9.4.6.4 1.7.4 2.4v4.8c0 .2-.1.3-.3.3h-1.7c-.2 0-.3-.1-.3-.3v-4.1c0-.8.1-2-.9-2-.4 0-.7.2-.9.6-.2.5-.2 1-.2 1.4v4c0 .2-.1.3-.3.3z" fill="currentColor"/>
  <path d="M50.7 19.6c0 .7 0 1.3-.3 1.9-.2.5-.6.8-1 1-.3.1-.7.2-1 .2-.6 0-1.1-.2-1.4-.7h-.1v3.1c0 .2-.1.3-.3.3h-1.7c-.2 0-.3-.1-.3-.3V14c0-.2.1-.3.3-.3h1.6c.2 0 .3.1.3.3v.7h.1c.4-.7 1-.9 1.7-.9.9 0 1.5.4 1.8 1.2.2.5.3 1.2.3 1.9v2.7zm-1.8-2.8c0-.8-.1-1.5-.8-1.5-.3 0-.6.2-.8.6-.2.5-.2 1-.2 1.4v1.7c0 .4 0 .8.1 1.1.1.3.4.5.7.5.6 0 .8-.5.9-1.1.1-.4.1-.9.1-1.3v-1.4z" fill="currentColor"/>
  <path d="M71.3 19.6c0 .7 0 1.3-.3 1.9-.2.5-.6.8-1 1-.3.1-.7.2-1 .2-.6 0-1.1-.2-1.4-.7h-.1v3.1c0 .2-.1.3-.3.3h-1.7c-.2 0-.3-.1-.3-.3V14c0-.2.1-.3.3-.3h1.6c.2 0 .3.1.3.3v.7h.1c.4-.7 1-.9 1.7-.9.9 0 1.5.4 1.8 1.2.2.5.3 1.2.3 1.9v2.7zm-1.8-2.8c0-.8-.1-1.5-.8-1.5-.3 0-.6.2-.8.6-.2.5-.2 1-.2 1.4v1.7c0 .4 0 .8.1 1.1.1.3.4.5.7.5.6 0 .8-.5.9-1.1.1-.4.1-.9.1-1.3v-1.4z" fill="currentColor"/>
  <path d="M77.6 20.1c.2 0 .3.1.3.3v1.4c0 .2-.1.3-.3.3h-4.8c-.2 0-.3-.1-.3-.3V14c0-.2.1-.3.3-.3h1.7c.2 0 .3.1.3.3v5.8h2.8z" fill="currentColor"/>
  <path d="M86.7 18.7c0 1.6-.4 3-1.2 4-.8 1-2 1.5-3.3 1.5-1.4 0-2.5-.5-3.3-1.5-.8-1-1.2-2.4-1.2-4s.4-3 1.2-4c.8-1 2-1.5 3.3-1.5 1.4 0 2.5.5 3.3 1.5.8 1 1.2 2.4 1.2 4zm-1.8 0c0-1.1-.2-2-.6-2.7-.4-.7-1-.9-1.7-.9s-1.3.3-1.7.9c-.4.7-.6 1.6-.6 2.7s.2 2 .6 2.7c.4.7 1 .9 1.7.9s1.3-.3 1.7-.9c.4-.7.6-1.6.6-2.7z" fill="currentColor"/>
</svg> 