<?xml version="1.0" encoding="UTF-8"?>
<svg width="100" height="40" viewBox="0 0 100 40" fill="none" xmlns="http://www.w3.org/2000/svg">
  <path d="M37.8 20.2c0-1.1-.1-2.2-.3-3.2H27v6.1h6.1c-.3 1.4-1.1 2.6-2.3 3.4v2.8h3.7c2.2-2 3.4-4.9 3.4-9.1z" fill="#4285F4"/>
  <path d="M27 31c3.1 0 5.7-1 7.6-2.7l-3.7-2.8c-1 .7-2.3 1.1-3.9 1.1-3 0-5.5-2-6.4-4.7h-3.8v2.9C18.7 28.6 22.5 31 27 31z" fill="#34A853"/>
  <path d="M20.6 21.9c-.2-.7-.4-1.4-.4-2.2 0-.8.1-1.5.4-2.2v-2.9h-3.8C15.9 16.5 15.5 18.6 15.5 20c0 1.4.4 3.5 1.3 5.1l3.8-2.9z" fill="#FBBC05"/>
  <path d="M27 13.3c1.7 0 3.2.6 4.4 1.7l3.3-3.3C32.7 9.9 30.1 8.8 27 8.8c-4.5 0-8.3 2.4-10.2 6.2l3.8 2.9c.9-2.7 3.4-4.6 6.4-4.6z" fill="#EA4335"/>
  <path d="M52.5 21.8c0 5.4-4.2 9.3-9.3 9.3s-9.3-3.9-9.3-9.3 4.2-9.3 9.3-9.3c2.6 0 4.8 1 6.5 2.7l-2.6 2.6c-1.1-1-2.5-1.6-3.9-1.6-3.2 0-5.8 2.6-5.8 5.8s2.6 5.8 5.8 5.8c2.1 0 3.9-1.1 4.9-2.9h-4.9v-3.4h8.6c.1.6.2 1.2.2 1.9z" fill="currentColor"/>
  <path d="M64.7 16.3c3.2 0 5.8 2.4 5.8 5.8 0 3.4-2.6 5.8-5.8 5.8s-5.8-2.4-5.8-5.8c0-3.4 2.6-5.8 5.8-5.8zm0 9.3c1.9 0 3.4-1.5 3.4-3.4s-1.5-3.4-3.4-3.4-3.4 1.5-3.4 3.4 1.5 3.4 3.4 3.4z" fill="currentColor"/>
  <path d="M78.2 16.3c3.2 0 5.8 2.4 5.8 5.8 0 3.4-2.6 5.8-5.8 5.8s-5.8-2.4-5.8-5.8c0-3.4 2.6-5.8 5.8-5.8zm0 9.3c1.9 0 3.4-1.5 3.4-3.4s-1.5-3.4-3.4-3.4-3.4 1.5-3.4 3.4 1.5 3.4 3.4 3.4z" fill="currentColor"/>
</svg> 