<?xml version="1.0" encoding="UTF-8"?>
<svg width="120" height="40" viewBox="0 0 120 40" fill="none" xmlns="http://www.w3.org/2000/svg">
  <path d="M19 10H10V19H19V10Z" fill="#F25022"/>
  <path d="M30 10H21V19H30V10Z" fill="#7FBA00"/>
  <path d="M19 21H10V30H19V21Z" fill="#00A4EF"/>
  <path d="M30 21H21V30H30V21Z" fill="#FFB900"/>
  <path d="M44 15.5H40V25H42V22H44C46.2 22 47 20.5 47 18.75C47 17 46.2 15.5 44 15.5ZM43.8 20.5H42V17H43.8C44.8 17 45 17.75 45 18.75C45 19.75 44.8 20.5 43.8 20.5Z" fill="currentColor"/>
  <path d="M54 20.5H51V17H54C55 17 55.2 17.75 55.2 18.75C55.2 19.75 55 20.5 54 20.5ZM54.2 15.5H49V25H51V22H54.2C56.4 22 57.2 20.5 57.2 18.75C57.2 17 56.4 15.5 54.2 15.5Z" fill="currentColor"/>
  <path d="M64 20.5H61V17H64C65 17 65.2 17.75 65.2 18.75C65.2 19.75 65 20.5 64 20.5ZM64.2 15.5H59V25H61V22H64.2C66.4 22 67.2 20.5 67.2 18.75C67.2 17 66.4 15.5 64.2 15.5Z" fill="currentColor"/>
  <path d="M73 15.5H69V25H73C76 25 77 23 77 20.25C77 17.5 76 15.5 73 15.5ZM72.8 23.5H71V17H72.8C74.3 17 75 18 75 20.25C75 22.5 74.3 23.5 72.8 23.5Z" fill="currentColor"/>
  <path d="M83 23.5H80V21H83V19.5H80V17H83V15.5H78V25H83V23.5Z" fill="currentColor"/>
  <path d="M89 23.5H86V21H89V19.5H86V17H89V15.5H84V25H89V23.5Z" fill="currentColor"/>
  <path d="M95 23.5H92V21H95V19.5H92V17H95V15.5H90V25H95V23.5Z" fill="currentColor"/>
  <path d="M101 23.5H98V21H101V19.5H98V17H101V15.5H96V25H101V23.5Z" fill="currentColor"/>
</svg> 